<!-- Generated by IcoMoon.io -->
<svg version="1.1" xmlns="http://www.w3.org/2000/svg" width="48" height="48" viewBox="0 0 48 48">
<title>happy</title>
<path d="M24 48c13.255 0 24-10.745 24-24s-10.745-24-24-24-24 10.745-24 24 10.745 24 24 24zM24 4.5c10.77 0 19.5 8.73 19.5 19.5s-8.73 19.5-19.5 19.5-19.5-8.73-19.5-19.5 8.73-19.5 19.5-19.5zM24 28.067c5.435 0 10.605-1.444 15-3.981-0.683 8.364-7.178 14.914-15 14.914s-14.317-6.556-15-14.92c4.395 2.536 9.565 3.987 15 3.987zM12 16.5c0-2.485 1.343-4.5 3-4.5s3 2.015 3 4.5c0 2.485-1.343 4.5-3 4.5s-3-2.015-3-4.5zM30 16.5c0-2.485 1.343-4.5 3-4.5s3 2.015 3 4.5c0 2.485-1.343 4.5-3 4.5s-3-2.015-3-4.5z"></path>
</svg>
