<!-- Generated by IcoMoon.io -->
<svg version="1.1" xmlns="http://www.w3.org/2000/svg" width="48" height="48" viewBox="0 0 48 48">
<title>wink</title>
<path d="M24 48c13.255 0 24-10.745 24-24s-10.745-24-24-24-24 10.745-24 24 10.745 24 24 24zM24 4.5c10.77 0 19.5 8.73 19.5 19.5s-8.73 19.5-19.5 19.5-19.5-8.73-19.5-19.5 8.73-19.5 19.5-19.5zM25.441 33.329c6.574-1.299 11.677-4.291 13.521-8.278-1.015 7.873-7.571 13.948-15.509 13.948-5.589 0-10.493-3.013-13.261-7.544 3.3 2.581 9.119 3.085 15.248 1.874zM30 16.5c0-2.485 1.343-4.5 3-4.5s3 2.015 3 4.5c0 2.485-1.343 4.5-3 4.5s-3-2.015-3-4.5zM16.5 17.414c-1.959 0-3.625 0.734-4.243 1.758-0.166-0.275-0.257-1.508-0.257-1.816 0-1.456 2.015-2.637 4.5-2.637s4.5 1.181 4.5 2.637c0 0.308-0.091 1.541-0.257 1.816-0.618-1.024-2.284-1.758-4.243-1.758z"></path>
</svg>
