<!-- Generated by IcoMoon.io -->
<svg version="1.1" xmlns="http://www.w3.org/2000/svg" width="48" height="48" viewBox="0 0 48 48">
<title>sleepy</title>
<path d="M24 48c13.255 0 24-10.745 24-24s-10.745-24-24-24-24 10.745-24 24 10.745 24 24 24zM24 4.5c10.77 0 19.5 8.73 19.5 19.5s-8.73 19.5-19.5 19.5-19.5-8.73-19.5-19.5 8.73-19.5 19.5-19.5z"></path>
<path d="M30 31.5c0 4.142-2.686 7.5-6 7.5s-6-3.358-6-7.5c0-4.142 2.686-7.5 6-7.5s6 3.358 6 7.5z"></path>
<path d="M19.5 15.938c-0.384 0-0.768-0.146-1.061-0.439-0.906-0.906-2.972-0.906-3.879 0-0.586 0.586-1.536 0.586-2.121 0s-0.586-1.536 0-2.121c2.087-2.087 6.034-2.087 8.121 0 0.586 0.586 0.586 1.536 0 2.121-0.293 0.293-0.677 0.439-1.061 0.439z"></path>
<path d="M34.5 15.938c-0.384 0-0.768-0.146-1.061-0.439-0.906-0.906-2.973-0.906-3.879 0-0.586 0.586-1.536 0.586-2.121 0s-0.586-1.536 0-2.121c2.087-2.087 6.034-2.087 8.121 0 0.586 0.586 0.586 1.536 0 2.121-0.293 0.293-0.677 0.439-1.061 0.439z"></path>
</svg>
