<!-- Generated by IcoMoon.io -->
<svg version="1.1" xmlns="http://www.w3.org/2000/svg" width="48" height="48" viewBox="0 0 48 48">
<title>shocked</title>
<path d="M24 48c13.255 0 24-10.745 24-24s-10.745-24-24-24-24 10.745-24 24 10.745 24 24 24zM24 4.5c10.77 0 19.5 8.73 19.5 19.5s-8.73 19.5-19.5 19.5-19.5-8.73-19.5-19.5 8.73-19.5 19.5-19.5zM18 33c0-3.314 2.686-6 6-6s6 2.686 6 6c0 3.314-2.686 6-6 6s-6-2.686-6-6zM30 16.5c0-2.485 1.343-4.5 3-4.5s3 2.015 3 4.5c0 2.485-1.343 4.5-3 4.5s-3-2.015-3-4.5zM12 16.5c0-2.485 1.343-4.5 3-4.5s3 2.015 3 4.5c0 2.485-1.343 4.5-3 4.5s-3-2.015-3-4.5z"></path>
</svg>
