<!-- Generated by IcoMoon.io -->
<svg version="1.1" xmlns="http://www.w3.org/2000/svg" width="48" height="48" viewBox="0 0 48 48">
<title>cool</title>
<path d="M24 48c13.255 0 24-10.745 24-24s-10.745-24-24-24-24 10.745-24 24 10.745 24 24 24zM24 4.5c10.77 0 19.5 8.73 19.5 19.5s-8.73 19.5-19.5 19.5-19.5-8.73-19.5-19.5 8.73-19.5 19.5-19.5zM37.5 12c0.825 0 1.5 0.675 1.5 1.5v4.5c0 1.65-1.35 3-3 3h-6c-1.65 0-3-1.35-3-3h-6c0 1.65-1.35 3-3 3h-6c-1.65 0-3-1.35-3-3v-4.5c0-0.825 0.675-1.5 1.5-1.5h9c0.825 0 1.5 0.675 1.5 1.5v1.5h6v-1.5c0-0.825 0.675-1.5 1.5-1.5h9zM24 36c4.369 0 8.192-2.335 10.291-5.826l2.573 1.544c-2.623 4.363-7.402 7.282-12.864 7.282-2.271 0-4.424-0.506-6.353-1.41l1.554-2.591c1.47 0.643 3.092 1.001 4.799 1.001z"></path>
</svg>
