<!-- Generated by IcoMoon.io -->
<svg version="1.1" xmlns="http://www.w3.org/2000/svg" width="48" height="48" viewBox="0 0 48 48">
<title>grin</title>
<path d="M24 48c13.255 0 24-10.745 24-24s-10.745-24-24-24-24 10.745-24 24 10.745 24 24 24zM24 4.5c10.77 0 19.5 8.73 19.5 19.5s-8.73 19.5-19.5 19.5-19.5-8.73-19.5-19.5 8.73-19.5 19.5-19.5zM9 24v3c0 6.6 5.4 12 12 12h6c6.6 0 12-5.4 12-12v-3h-30zM18 35.484c-1.244-0.443-2.387-1.164-3.354-2.13-1.707-1.706-2.646-3.963-2.646-6.354h6v8.484zM27 36h-6v-9h6v9zM33.354 33.354c-0.967 0.967-2.11 1.687-3.354 2.13v-8.484h6c0 2.391-0.94 4.647-2.646 6.354zM10.563 18c0 0 0 0 0 0 0.458 0 0.849-0.331 0.925-0.782 0.289-1.72 1.766-2.968 3.512-2.968s3.223 1.248 3.512 2.968c0.076 0.451 0.467 0.782 0.924 0.782s0.849-0.331 0.925-0.782c0.051-0.302 0.076-0.606 0.076-0.905 0-2.998-2.439-5.438-5.437-5.438s-5.438 2.439-5.438 5.438c0 0.299 0.026 0.604 0.076 0.905 0.076 0.451 0.467 0.782 0.925 0.782zM28.563 18c0 0 0 0 0 0 0.458 0 0.849-0.331 0.925-0.782 0.289-1.72 1.766-2.968 3.512-2.968s3.223 1.248 3.512 2.968c0.076 0.451 0.467 0.782 0.924 0.782s0.849-0.331 0.924-0.782c0.051-0.302 0.076-0.606 0.076-0.905 0-2.998-2.439-5.438-5.438-5.438s-5.438 2.439-5.438 5.438c0 0.299 0.026 0.604 0.076 0.905 0.076 0.451 0.467 0.782 0.925 0.782z"></path>
</svg>
