<!-- Generated by IcoMoon.io -->
<svg version="1.1" xmlns="http://www.w3.org/2000/svg" width="48" height="48" viewBox="0 0 48 48">
<title>tongue</title>
<path d="M24 48c13.255 0 24-10.745 24-24s-10.745-24-24-24-24 10.745-24 24 10.745 24 24 24zM24 4.5c10.77 0 19.5 8.73 19.5 19.5s-8.73 19.5-19.5 19.5-19.5-8.73-19.5-19.5 8.73-19.5 19.5-19.5zM12 15c0-1.657 1.343-3 3-3s3 1.343 3 3c0 1.657-1.343 3-3 3s-3-1.343-3-3zM30 15c0-1.657 1.343-3 3-3s3 1.343 3 3c0 1.657-1.343 3-3 3s-3-1.343-3-3zM36 27v3h-3v4.5c0 2.485-2.015 4.5-4.5 4.5s-4.5-2.015-4.5-4.5v-4.5h-12v-3h24z"></path>
</svg>
